<svg xmlns="http://www.w3.org/2000/svg" width="11.885" height="9.545" viewBox="0 0 11.885 9.545"><defs><style>.a{fill:#f5f1f1;}</style></defs><path class="a" d="M30.7,101.229l-4.055,4.055a.713.713,0,0,1-1.011,0l-.674-.674a.713.713,0,0,1,0-1.011l2.874-2.874L24.96,97.851a.713.713,0,0,1,0-1.011l.671-.68a.713.713,0,0,1,1.011,0l4.055,4.055A.714.714,0,0,1,30.7,101.229Zm5.725-1.014L32.37,96.16a.713.713,0,0,0-1.011,0l-.674.674a.713.713,0,0,0,0,1.011l2.874,2.874-2.874,2.874a.713.713,0,0,0,0,1.011l.674.674a.713.713,0,0,0,1.011,0l4.055-4.055A.709.709,0,0,0,36.425,100.215Z" transform="translate(-24.75 -95.95)"/></svg>