<svg xmlns="http://www.w3.org/2000/svg" width="13.574" height="13.572" viewBox="0 0 13.574 13.572"><defs><style>.a{fill:#f5f1f1;}</style></defs><path class="a" d="M6.714,35.131a3.48,3.48,0,1,0,3.48,3.48A3.474,3.474,0,0,0,6.714,35.131Zm0,5.742a2.262,2.262,0,1,1,2.262-2.262A2.266,2.266,0,0,1,6.714,40.873Zm4.433-5.884a.812.812,0,1,1-.812-.812A.81.81,0,0,1,11.147,34.989Zm2.3.824a4.016,4.016,0,0,0-1.1-2.844,4.043,4.043,0,0,0-2.844-1.1c-1.12-.064-4.479-.064-5.6,0a4.037,4.037,0,0,0-2.844,1.093,4.03,4.03,0,0,0-1.1,2.844c-.064,1.12-.064,4.479,0,5.6a4.016,4.016,0,0,0,1.1,2.844,4.048,4.048,0,0,0,2.844,1.1c1.12.064,4.479.064,5.6,0a4.016,4.016,0,0,0,2.844-1.1,4.043,4.043,0,0,0,1.1-2.844C13.515,40.288,13.515,36.933,13.452,35.813ZM12,42.611a2.29,2.29,0,0,1-1.29,1.29,14.957,14.957,0,0,1-4,.273,15.074,15.074,0,0,1-4-.273,2.29,2.29,0,0,1-1.29-1.29,14.957,14.957,0,0,1-.273-4,15.074,15.074,0,0,1,.273-4,2.29,2.29,0,0,1,1.29-1.29,14.957,14.957,0,0,1,4-.273,15.074,15.074,0,0,1,4,.273A2.29,2.29,0,0,1,12,34.61a14.957,14.957,0,0,1,.273,4A14.948,14.948,0,0,1,12,42.611Z" transform="translate(0.075 -31.825)"/></svg>