<svg xmlns="http://www.w3.org/2000/svg" width="17.862" height="14.11" viewBox="0 0 17.862 14.11"><defs><style>.a{fill:#f5f1f1;}</style></defs><path class="a" d="M16.026,51.6c.011.154.011.309.011.463A10.2,10.2,0,0,1,5.621,62.192,10.558,10.558,0,0,1,0,60.593a7.784,7.784,0,0,0,.884.044,7.464,7.464,0,0,0,4.545-1.521,3.656,3.656,0,0,1-3.423-2.469A4.743,4.743,0,0,0,2.7,56.7a3.974,3.974,0,0,0,.963-.121A3.587,3.587,0,0,1,.725,53.087v-.044a3.766,3.766,0,0,0,1.655.452A3.534,3.534,0,0,1,.748,50.529a3.46,3.46,0,0,1,.5-1.8,10.505,10.505,0,0,0,7.548,3.726,3.914,3.914,0,0,1-.091-.816,3.61,3.61,0,0,1,3.661-3.56,3.7,3.7,0,0,1,2.675,1.124,7.332,7.332,0,0,0,2.323-.86,3.571,3.571,0,0,1-1.609,1.962,7.5,7.5,0,0,0,2.108-.551A7.755,7.755,0,0,1,16.026,51.6Z" transform="translate(0 -48.082)"/></svg>